<svg width="44" height="47" viewBox="0 0 44 47" fill="none" xmlns="http://www.w3.org/2000/svg">
<g clip-path="url(#clip0_58_13)">
<path d="M17.4503 46.098C16.6471 46.0994 15.8517 45.9409 15.1104 45.6319C14.369 45.3229 13.6966 44.8694 13.1323 44.298C12.5638 43.7299 12.1132 43.0551 11.8064 42.3124C11.4996 41.5696 11.3425 40.7736 11.3443 39.97C11.3444 39.5766 11.3819 39.1842 11.4563 38.798H23.4443C23.5187 39.1842 23.5562 39.5766 23.5563 39.97C23.5589 40.775 23.4022 41.5726 23.0952 42.3168C22.7881 43.061 22.3368 43.737 21.7673 44.306C21.2023 44.8759 20.5298 45.3278 19.7887 45.6354C19.0476 45.943 18.2527 46.1003 17.4503 46.098ZM37.6443 46.079C36.4793 46.079 35.3387 45.7455 34.3573 45.1178C33.3759 44.4901 32.5948 43.5946 32.1063 42.537L30.3683 38.798H43.6443C43.9009 40.1366 43.7041 41.5227 43.0849 42.737C42.4657 43.9513 41.4595 44.9245 40.2253 45.503C39.4181 45.8835 38.5366 46.0802 37.6443 46.079Z" fill="white"/>
<path opacity="0.09" d="M43.6903 39.104H30.5103L22.1323 21.062C21.4471 19.5892 21.3731 17.905 21.9265 16.3779C22.4799 14.8507 23.6157 13.6049 25.0853 12.913C25.8912 12.5331 26.7713 12.3364 27.6623 12.337C28.8279 12.3366 29.9694 12.6699 30.9516 13.2976C31.9339 13.9252 32.7159 14.821 33.2053 15.879L43.1793 37.355C43.4371 37.9088 43.611 38.4979 43.6953 39.103L43.6903 39.104ZM23.4973 39.104H11.4053C11.6023 37.6403 12.3236 36.2978 13.4354 35.3256C14.5471 34.3534 15.9739 33.8176 17.4508 33.8176C18.9277 33.8176 20.3544 34.3534 21.4662 35.3256C22.578 36.2978 23.2993 37.6403 23.4963 39.104H23.4973Z" fill="white"/>
<path d="M22.8472 38.07H23.2902C29.6469 38.07 36.0032 38.07 42.3592 38.07C42.5749 38.0484 42.7926 38.0807 42.9928 38.164C43.193 38.2472 43.3694 38.3788 43.5062 38.547C43.6334 38.7037 43.714 38.8931 43.7385 39.0935C43.7631 39.2939 43.7308 39.4971 43.6452 39.68C43.5692 39.8786 43.4371 40.0509 43.2652 40.176C43.0932 40.3011 42.8886 40.3737 42.6762 40.385C42.2552 40.413 41.8302 40.398 41.4082 40.398C32.1242 40.398 22.8399 40.4003 13.5552 40.405C12.9287 40.4234 12.3053 40.3098 11.7256 40.0716C11.1458 39.8333 10.6227 39.4757 10.1902 39.022C8.00423 36.803 5.79023 34.617 3.59023 32.403C2.68265 31.4957 2.07472 30.3321 1.84823 29.069C1.6131 27.9108 1.68193 26.7114 2.04802 25.5878C2.41411 24.4641 3.06498 23.4544 3.93723 22.657C6.52623 20.09 9.09623 17.504 11.6752 14.926C14.9826 11.6186 18.2906 8.31164 21.5992 5.00497C22.0902 4.51497 22.6112 4.05497 23.0992 3.56297C24.0362 2.62197 24.9502 1.66297 25.8912 0.722972C26.1017 0.496005 26.3566 0.31478 26.6402 0.190572C26.9237 0.0663633 27.2297 0.00182914 27.5393 0.000984953C27.8488 0.000140762 28.1552 0.063004 28.4394 0.185664C28.7236 0.308324 28.9795 0.488156 29.1912 0.713971C31.9606 3.46597 34.7242 6.22364 37.4822 8.98697C39.3342 10.839 41.1836 12.6933 43.0302 14.55C43.2561 14.7608 43.4361 15.0158 43.5592 15.2991C43.6824 15.5824 43.7459 15.888 43.7459 16.197C43.7459 16.5059 43.6824 16.8115 43.5592 17.0949C43.4361 17.3782 43.2561 17.6332 43.0302 17.844C37.2249 23.6533 31.4176 29.4606 25.6082 35.266C24.7316 36.1426 23.8556 37.02 22.9802 37.898C22.9482 37.932 22.9202 37.976 22.8472 38.07ZM27.5412 2.25697C27.4529 2.39143 27.3564 2.52034 27.2522 2.64297C25.8829 4.01631 24.5116 5.38764 23.1382 6.75697C19.0462 10.847 14.9539 14.9353 10.8612 19.022C10.6612 19.222 10.6612 19.343 10.8612 19.544C13.0326 21.6993 15.1992 23.8586 17.3612 26.022C19.0872 27.748 20.8109 29.4766 22.5322 31.208C22.7057 31.3675 22.823 31.5787 22.8666 31.8103C22.9102 32.0419 22.8778 32.2813 22.7742 32.493C22.6869 32.6765 22.554 32.8347 22.3883 32.9524C22.2226 33.0701 22.0295 33.1434 21.8274 33.1653C21.6253 33.1873 21.4209 33.1571 21.2338 33.0778C21.0467 32.9984 20.8829 32.8725 20.7582 32.712C17.8912 29.812 15.0002 26.939 12.1192 24.054C11.0832 23.022 10.0522 21.983 9.01223 20.937C8.94883 20.9762 8.88834 21.02 8.83123 21.068C7.69423 22.203 6.56123 23.343 5.42023 24.475C4.82417 25.0434 4.40061 25.7685 4.19823 26.567C3.98185 27.3181 3.97382 28.1139 4.17498 28.8692C4.37614 29.6246 4.77893 30.311 5.34023 30.855C7.52623 33.074 9.74523 35.262 11.9402 37.474C12.1162 37.6654 12.3304 37.8178 12.569 37.9211C12.8076 38.0245 13.0652 38.0766 13.3252 38.074C15.3182 38.074 17.3102 38.074 19.3032 38.067C19.4531 38.058 19.5949 37.996 19.7032 37.892C23.4952 34.112 27.2842 30.3306 31.0702 26.548C34.4442 23.1746 37.8166 19.7996 41.1872 16.423C41.3642 16.246 41.3792 16.164 41.1952 15.981C38.6139 13.4063 36.0382 10.8263 33.4682 8.24097C31.5182 6.27997 29.5742 4.31097 27.5412 2.25697Z" fill="white"/>
<path d="M3.12721 37.5049C3.61621 37.5049 4.10521 37.4989 4.59321 37.5049C4.81538 37.508 5.03207 37.5743 5.218 37.6959C5.40392 37.8176 5.5514 37.9896 5.64321 38.1919C5.74914 38.4086 5.77913 38.6546 5.72834 38.8904C5.67756 39.1262 5.54896 39.3381 5.36321 39.4919C5.11074 39.6844 4.8078 39.7994 4.49121 39.8229C3.56121 39.8649 2.62721 39.8439 1.69121 39.8359C1.53513 39.8396 1.37988 39.8121 1.23457 39.755C1.08926 39.6979 0.956823 39.6124 0.845037 39.5034C0.733251 39.3944 0.644369 39.2642 0.583609 39.1204C0.522848 38.9766 0.491433 38.8221 0.491211 38.6659C0.491831 38.5109 0.523384 38.3574 0.584021 38.2147C0.644657 38.072 0.733161 37.9428 0.844349 37.8346C0.955537 37.7265 1.08718 37.6417 1.23156 37.5851C1.37594 37.5285 1.53017 37.5012 1.68521 37.5049C2.17121 37.5009 2.64921 37.5049 3.12721 37.5049Z" fill="white"/>
<path d="M5.33105 44.739C5.44063 44.45 5.58718 44.1764 5.76706 43.925C6.40806 43.234 7.08606 42.577 7.76006 41.917C7.92585 41.7262 8.15081 41.5966 8.39899 41.5487C8.64716 41.5008 8.90421 41.5376 9.12906 41.653C9.33606 41.7506 9.50793 41.9096 9.62121 42.1084C9.7345 42.3072 9.78368 42.5362 9.76205 42.764C9.70744 43.0648 9.57271 43.3453 9.37206 43.576C8.74306 44.257 8.07205 44.899 7.41205 45.552C7.24268 45.7303 7.02214 45.8516 6.78087 45.8993C6.5396 45.9469 6.2895 45.9185 6.06506 45.818C5.86181 45.7363 5.68995 45.5918 5.57448 45.4057C5.45901 45.2195 5.40596 45.0013 5.42305 44.783L5.33105 44.739Z" fill="white"/>
</g>
<defs>
<clipPath id="clip0_58_13">
<rect width="43.249" height="46.102" fill="white" transform="translate(0.5)"/>
</clipPath>
</defs>
</svg>
