<svg width="29" height="39" viewBox="0 0 29 39" fill="none" xmlns="http://www.w3.org/2000/svg">
<g clip-path="url(#clip0_58_22)">
<path d="M25.2008 13.376C25.5698 13.476 25.9217 13.543 26.2567 13.661C26.9344 13.899 27.518 14.3478 27.922 14.9417C28.326 15.5356 28.5291 16.2433 28.5016 16.961C28.5069 19.851 28.5069 22.741 28.5016 25.631C28.5016 28.6243 28.5016 31.6173 28.5016 34.61C28.5267 35.2557 28.3742 35.896 28.0607 36.461C27.7936 36.951 27.4074 37.366 26.9379 37.6676C26.4683 37.9692 25.9304 38.1478 25.3737 38.187C25.1627 38.206 24.9497 38.209 24.7377 38.209C17.871 38.209 11.0045 38.209 4.13783 38.209C3.40544 38.2425 2.68036 38.0494 2.06166 37.656C1.57475 37.347 1.17544 36.9179 0.902237 36.4101C0.629038 35.9022 0.491077 35.3326 0.501602 34.756C0.493602 32.977 0.501602 31.198 0.501602 29.419C0.501602 25.2663 0.501602 21.1137 0.501602 16.961C0.464933 16.1335 0.737401 15.3219 1.26576 14.684C1.57073 14.3035 1.9561 13.9953 2.39442 13.7815C2.83275 13.5678 3.31306 13.4539 3.80067 13.448C5.63967 13.432 7.47972 13.439 9.31972 13.439H21.1056C21.1056 13.365 21.1146 13.302 21.1146 13.239C21.1146 10.4763 21.1146 7.714 21.1146 4.952C21.1148 4.84911 21.1062 4.7464 21.0888 4.64499C21.0686 4.49623 20.9968 4.35925 20.8861 4.25785C20.7754 4.15645 20.6328 4.09706 20.4828 4.09C20.3438 4.078 20.2036 4.07599 20.0646 4.07599L8.73573 4.086C8.63854 4.08161 8.54113 4.08596 8.44472 4.099C8.28677 4.12395 8.14356 4.20633 8.04262 4.33034C7.94167 4.45436 7.88997 4.61128 7.8976 4.771C7.8926 5.427 7.8976 6.082 7.8976 6.738C7.8976 7.606 7.9046 8.474 7.8976 9.338C7.90323 9.7887 7.76039 10.2287 7.4911 10.5902C7.22182 10.9516 6.84108 11.2144 6.40761 11.338C6.10886 11.4244 5.79442 11.4405 5.48842 11.3851C5.18242 11.3297 4.8932 11.2043 4.64369 11.0187C4.39418 10.8331 4.19098 10.5923 4.04994 10.3151C3.9089 10.038 3.83389 9.73195 3.8307 9.421C3.80204 7.78233 3.80383 6.14334 3.83583 4.504C3.87847 3.41568 4.30082 2.37668 5.02992 1.56756C5.75903 0.758434 6.74877 0.23033 7.8268 0.0750027C8.12668 0.0319481 8.42894 0.00723039 8.73183 0.000997558C12.6232 -0.00366911 16.5146 -0.00366911 20.4066 0.000997558C21.4935 -0.0132268 22.5519 0.349079 23.402 1.02642C24.2521 1.70376 24.8418 2.6544 25.0707 3.717C25.1607 4.15652 25.2032 4.60441 25.1976 5.053C25.2086 7.753 25.2038 10.444 25.2038 13.14L25.2008 13.376ZM23.4657 25.883C23.4756 24.1132 22.9604 22.3802 21.9855 20.9031C21.0106 19.426 19.6196 18.2711 17.9884 17.5844C16.3572 16.8976 14.5592 16.71 12.8214 17.045C11.0836 17.3801 9.48415 18.2229 8.22524 19.4669C6.96632 20.7108 6.10449 22.3001 5.74867 24.0338C5.39285 25.7675 5.55904 27.5678 6.22621 29.207C6.89338 30.8463 8.03161 32.251 9.49696 33.2435C10.9623 34.236 12.6888 34.7717 14.4586 34.783C15.6352 34.7928 16.802 34.57 17.8922 34.1275C18.9824 33.685 19.9745 33.0315 20.8114 32.2045C21.6483 31.3775 22.3137 30.3934 22.7692 29.3085C23.2247 28.2237 23.4614 27.0596 23.4657 25.883Z" fill="#00A4B6"/>
<path d="M14.5508 18.847C15.9415 18.853 17.2987 19.2739 18.4487 20.0559C19.5988 20.8378 20.4892 21.9452 21.0061 23.2362C21.523 24.5273 21.6427 25.9433 21.3501 27.3028C21.0575 28.6624 20.366 29.9036 19.3638 30.8677C18.3615 31.8318 17.0943 32.4748 15.7244 32.7144C14.3545 32.9541 12.9443 32.7794 11.6743 32.2128C10.4043 31.6462 9.3322 30.7134 8.59547 29.5339C7.85873 28.3544 7.49086 26.9818 7.53883 25.592C7.60072 23.7765 8.3676 22.0566 9.67677 20.7973C10.9859 19.538 12.7343 18.8384 14.5508 18.847ZM14.5857 20.958C13.3661 20.9459 12.1855 21.3879 11.2737 22.198C10.4361 22.9451 9.88205 23.9584 9.70509 25.0667C9.52813 26.175 9.73924 27.3105 10.3025 28.2813C10.8658 29.252 11.7469 29.9987 12.7969 30.3951C13.8469 30.7915 15.0014 30.8133 16.0657 30.457C16.8065 30.2128 17.4759 29.7901 18.0147 29.226C18.1579 29.0846 18.2542 28.9024 18.2903 28.7044C18.3264 28.5063 18.3007 28.302 18.2166 28.1191C18.1324 27.9362 17.994 27.7836 17.8201 27.6821C17.6462 27.5807 17.4453 27.5353 17.2446 27.552C16.9324 27.6056 16.6479 27.764 16.4378 28.001C16.1477 28.2723 15.805 28.4812 15.4309 28.6146C15.0568 28.7481 14.6595 28.8033 14.2632 28.7768C13.8669 28.7502 13.4802 28.6426 13.1272 28.4605C12.7742 28.2785 12.4625 28.0259 12.2112 27.7183C11.9599 27.4108 11.7744 27.0549 11.6663 26.6727C11.5581 26.2906 11.5296 25.8903 11.5825 25.4967C11.6355 25.103 11.7686 24.7244 11.9739 24.3844C12.1791 24.0444 12.452 23.7502 12.7756 23.52C13.2332 23.168 13.7866 22.9625 14.363 22.9306C14.9395 22.8986 15.5122 23.0417 16.0059 23.341C16.1831 23.4555 16.3812 23.5337 16.5889 23.571C16.8077 23.5973 17.0287 23.5467 17.2144 23.428C17.4 23.3093 17.5387 23.1297 17.6067 22.92C17.6793 22.7087 17.6774 22.4789 17.6013 22.2688C17.5253 22.0587 17.3797 21.8809 17.1887 21.765C16.4173 21.2508 15.5127 20.9705 14.5857 20.958Z" fill="#00A4B6"/>
</g>
<defs>
<clipPath id="clip0_58_22">
<rect width="28.004" height="38.215" fill="white" transform="translate(0.5)"/>
</clipPath>
</defs>
</svg>
