<svg xmlns="http://www.w3.org/2000/svg" width="14.542" height="28.787" viewBox="0 0 14.542 28.787">
  <g id="fb" transform="translate(0)">
    <path id="XMLID_835_" d="M77.167,15.332h3.155V28.323a.464.464,0,0,0,.464.464h5.35a.464.464,0,0,0,.464-.464V15.393h3.627a.464.464,0,0,0,.461-.411l.551-4.783a.464.464,0,0,0-.461-.517H86.6v-3c0-.9.487-1.362,1.446-1.362H90.78a.464.464,0,0,0,.464-.464V.468A.464.464,0,0,0,90.78,0H87.015c-.027,0-.086,0-.172,0a7.215,7.215,0,0,0-4.718,1.778,4.947,4.947,0,0,0-1.645,4.4V9.682H77.167a.464.464,0,0,0-.464.464v4.721A.464.464,0,0,0,77.167,15.332Z" transform="translate(-76.703)" fill="#00a0b2"/>
  </g>
</svg>
