<svg width="40" height="39" viewBox="0 0 40 39" fill="none" xmlns="http://www.w3.org/2000/svg">
<g clip-path="url(#clip0_58_56)">
<path d="M2.15019 32.305C2.80719 32.305 3.46438 32.305 4.12138 32.305C4.35938 32.305 4.5963 32.258 4.8333 32.258C9.89463 32.258 14.956 32.2604 20.0174 32.265C20.1631 32.2868 20.3114 32.2508 20.431 32.1647C20.5505 32.0786 20.6318 31.9491 20.6573 31.804C20.8842 31.1127 21.2556 30.4775 21.7466 29.9404C22.2376 29.4034 22.8369 28.9769 23.5052 28.689C24.3706 28.3027 25.3254 28.161 26.2657 28.2795C27.206 28.398 28.0957 28.7721 28.8382 29.361C29.8253 30.0846 30.5159 31.1422 30.7813 32.337C31.0237 33.3721 30.9458 34.4564 30.5581 35.4463C30.1705 36.4362 29.4913 37.2849 28.6104 37.88C27.5579 38.6331 26.2556 38.9521 24.9742 38.771C24.0938 38.6634 23.2553 38.3339 22.5372 37.8135C21.819 37.2932 21.2447 36.599 20.8682 35.796C20.7447 35.5557 20.6463 35.3034 20.5743 35.043C20.5123 34.819 20.3974 34.762 20.1744 34.763C18.9584 34.772 17.7412 34.763 16.5252 34.763H2.74321C2.27621 34.763 1.80931 34.783 1.34331 34.763C1.05901 34.78 0.777112 34.7012 0.542769 34.5394C0.308425 34.3775 0.135161 34.1419 0.0503371 33.87C-0.0255863 33.6191 -0.0186927 33.3505 0.0701125 33.1039C0.158918 32.8573 0.324824 32.6458 0.543257 32.501C0.753533 32.3715 0.990621 32.2915 1.23637 32.267C1.53953 32.2444 1.84372 32.2414 2.14726 32.258L2.15019 32.305Z" fill="#00A4B6"/>
<path d="M9.53475 4.02999C12.2817 4.02999 15.0299 4.02501 17.7769 4.03701C17.8431 4.04913 17.911 4.04776 17.9766 4.03298C18.0423 4.0182 18.1044 3.99032 18.159 3.95101C18.2136 3.9117 18.2596 3.86175 18.2945 3.80419C18.3294 3.74662 18.3524 3.68261 18.3619 3.61599C18.6989 2.60852 19.332 1.72612 20.1783 1.08404C21.0247 0.441955 22.045 0.0700645 23.106 0.0169274C24.1671 -0.0362097 25.2193 0.231877 26.1256 0.786184C27.0318 1.34049 27.7499 2.15523 28.1859 3.12398C28.6769 4.13847 28.7982 5.29257 28.5289 6.38698C28.3527 7.23369 27.9686 8.02326 27.4112 8.68453C26.8538 9.3458 26.1404 9.85803 25.3358 10.175C24.715 10.4402 24.047 10.5769 23.3719 10.5769C22.6968 10.5769 22.0286 10.4402 21.4078 10.175C20.7173 9.89955 20.0924 9.48191 19.5738 8.94921C19.0552 8.41651 18.6546 7.78066 18.3978 7.083C18.1748 6.525 18.167 6.52801 17.568 6.52801H1.37777C1.10001 6.55196 0.822193 6.48265 0.588215 6.33108C0.354237 6.1795 0.177449 5.95428 0.0857739 5.691C0.0155644 5.50549 -0.00853577 5.30574 0.0152173 5.10882C0.0389703 4.91189 0.109942 4.72364 0.222249 4.56014C0.334555 4.39664 0.484706 4.26275 0.659993 4.16991C0.835279 4.07707 1.03049 4.02804 1.22884 4.027C3.99751 4.02633 6.76608 4.02732 9.53475 4.02999Z" fill="#00A4B6"/>
<path d="M4.38403 20.667C3.38403 20.667 2.38403 20.667 1.38403 20.667C1.2106 20.68 1.03651 20.6579 0.871826 20.602C0.707146 20.546 0.55539 20.4575 0.425781 20.3415C0.296172 20.2255 0.191256 20.0845 0.117432 19.9271C0.0436072 19.7696 0.00233532 19.5988 -0.00390625 19.425C-0.00310839 19.2459 0.0344996 19.0689 0.106445 18.905C0.178391 18.741 0.28308 18.5935 0.414307 18.4716C0.545533 18.3498 0.700523 18.2561 0.869385 18.1965C1.03825 18.1369 1.2176 18.1125 1.39624 18.125C3.41524 18.125 5.4351 18.118 7.4541 18.131C7.7631 18.131 7.86516 18.018 7.96216 17.731C8.18901 17.0454 8.55463 16.4139 9.03638 15.8758C9.51812 15.3378 10.1057 14.9049 10.7622 14.604C11.4254 14.2757 12.1562 14.1069 12.8962 14.111C13.7728 14.0936 14.6393 14.2974 15.4163 14.7036C16.1932 15.1098 16.8552 15.7053 17.3411 16.435C18.0615 17.4442 18.38 18.6856 18.2341 19.917C18.1584 20.8302 17.8399 21.7065 17.3115 22.4552C16.7832 23.2039 16.0643 23.7976 15.2292 24.175C13.9785 24.7739 12.5417 24.8544 11.2319 24.3989C9.92214 23.9433 8.84529 22.9888 8.23608 21.743C8.11478 21.5016 8.01701 21.2491 7.94409 20.989C7.92949 20.888 7.87546 20.7968 7.7937 20.7357C7.71194 20.6746 7.6091 20.6484 7.50806 20.663C6.46806 20.674 5.42603 20.667 4.38403 20.667Z" fill="#00A4B6"/>
<path d="M29.1731 18.118H37.6731C37.9183 18.1018 38.163 18.157 38.3775 18.2768C38.592 18.3965 38.7672 18.5758 38.8821 18.793C38.985 18.9754 39.0405 19.1807 39.0435 19.39C39.0465 19.5994 38.9968 19.8062 38.8992 19.9914C38.8016 20.1767 38.6593 20.3345 38.4849 20.4504C38.3106 20.5663 38.1098 20.6367 37.9012 20.655C37.7722 20.668 37.6413 20.664 37.5103 20.664H20.7742C19.8822 20.664 19.4823 20.409 19.2603 19.564C19.2162 19.2705 19.2791 18.971 19.4373 18.72C19.5571 18.5187 19.7299 18.3543 19.9371 18.245C20.1442 18.1356 20.3774 18.0854 20.6111 18.1C23.4651 18.108 26.3191 18.1 29.1741 18.1L29.1731 18.118Z" fill="#00A4B6"/>
<path d="M34.3509 4.02802C35.4889 4.02802 36.6279 4.05803 37.7659 4.01703C38.0973 4.02133 38.4144 4.15119 38.6536 4.38043C38.8929 4.60967 39.0365 4.92118 39.055 5.25201C39.0562 5.42034 39.0238 5.58724 38.9598 5.74292C38.8958 5.8986 38.8012 6.03996 38.682 6.15875C38.5627 6.27755 38.4209 6.37138 38.265 6.43478C38.109 6.49819 37.9421 6.52988 37.7737 6.52802C35.4844 6.53335 33.1946 6.53335 30.9046 6.52802C30.6266 6.52844 30.356 6.43971 30.1321 6.27484C29.9082 6.10997 29.7431 5.87768 29.661 5.61203C29.5839 5.31555 29.6152 5.00126 29.7498 4.7261C29.8845 4.45095 30.1135 4.23313 30.3948 4.11203C30.4921 4.06504 30.598 4.0385 30.7059 4.03403C31.9209 4.02903 33.1359 4.03403 34.3519 4.03403L34.3509 4.02802Z" fill="#00A4B6"/>
<path d="M35.483 34.766C34.713 34.766 33.9419 34.746 33.1729 34.772C32.8389 34.7749 32.5175 34.6453 32.2789 34.4116C32.0403 34.1778 31.904 33.859 31.9 33.525C31.896 33.1949 32.0231 32.8767 32.2535 32.6402C32.4839 32.4038 32.7989 32.2685 33.129 32.264C34.6903 32.2487 36.2524 32.2487 37.815 32.264C37.9808 32.2662 38.1444 32.3013 38.2965 32.3673C38.4486 32.4332 38.5864 32.5288 38.7013 32.6483C38.8162 32.7679 38.906 32.9091 38.9659 33.0637C39.0258 33.2183 39.0543 33.3833 39.0499 33.549C39.0481 33.7145 39.0132 33.8778 38.9469 34.0294C38.8805 34.1809 38.784 34.3176 38.6637 34.4312C38.5434 34.5448 38.4018 34.6329 38.2467 34.6905C38.0916 34.748 37.9261 34.7737 37.7608 34.766C37.0018 34.77 36.243 34.766 35.483 34.766Z" fill="#00A4B6"/>
</g>
<defs>
<clipPath id="clip0_58_56">
<rect width="39.054" height="38.823" fill="white"/>
</clipPath>
</defs>
</svg>
