<svg id="insta" xmlns="http://www.w3.org/2000/svg" width="28.723" height="28.724" viewBox="0 0 28.723 28.724">
  <path id="XMLID_17_" d="M20.167,0H8.557A8.567,8.567,0,0,0,0,8.557v11.61a8.567,8.567,0,0,0,8.557,8.557h11.61a8.567,8.567,0,0,0,8.557-8.557V8.557A8.567,8.567,0,0,0,20.167,0Zm5.667,20.167a5.667,5.667,0,0,1-5.667,5.667H8.557A5.667,5.667,0,0,1,2.89,20.167V8.557A5.667,5.667,0,0,1,8.557,2.89h11.61a5.667,5.667,0,0,1,5.667,5.667v11.61Z" fill="#00a0b2"/>
  <path id="XMLID_81_" d="M140.429,133a7.429,7.429,0,1,0,7.429,7.429A7.437,7.437,0,0,0,140.429,133Zm0,11.968a4.539,4.539,0,1,1,4.539-4.539A4.539,4.539,0,0,1,140.429,144.968Z" transform="translate(-126.067 -126.067)" fill="#00a0b2"/>
  <ellipse id="XMLID_83_" cx="1.78" cy="1.78" rx="1.78" ry="1.78" transform="translate(20.025 5.209)" fill="#00a0b2"/>
</svg>
