<svg width="40" height="39" viewBox="0 0 40 39" fill="none" xmlns="http://www.w3.org/2000/svg">
<g clip-path="url(#clip0_58_26)">
<path d="M8.80882 35.471C8.68322 35.6095 8.52097 35.7097 8.34082 35.76L2.65482 37.377C2.47497 37.4278 2.28448 37.4273 2.10494 37.3753C1.9254 37.3234 1.764 37.2222 1.63906 37.0832C1.51412 36.9442 1.43063 36.773 1.39806 36.5889C1.3655 36.4049 1.38516 36.2154 1.45482 36.042L3.65482 30.556C3.68697 30.4756 3.72932 30.3996 3.78082 30.33C1.08237 26.2889 -0.0101002 21.386 0.717402 16.5816C1.44491 11.7772 3.93996 7.41746 7.71383 4.35647C11.4877 1.29549 16.2684 -0.246216 21.1196 0.0333636C25.9707 0.312943 30.5427 2.39366 33.9399 5.86793C37.3371 9.3422 39.3148 13.9597 39.4856 18.8159C39.6563 23.672 38.0078 28.417 34.863 32.1213C31.7182 35.8256 27.3036 38.2223 22.4841 38.8419C17.6646 39.4615 12.7874 38.2594 8.80782 35.471H8.80882Z" fill="white"/>
<path d="M21.946 26.825V25.471H18.056V26.826C18.056 27.4028 17.8268 27.956 17.4189 28.3639C17.011 28.7718 16.4578 29.001 15.881 29.001C15.3041 29.001 14.7509 28.7718 14.343 28.3639C13.9351 27.956 13.706 27.4028 13.706 26.826V25.471H12.736C12.1432 25.471 11.5747 25.2355 11.1556 24.8163C10.7364 24.3972 10.501 23.8287 10.501 23.236C10.501 22.6432 10.7364 22.0747 11.1556 21.6556C11.5747 21.2364 12.1432 21.001 12.736 21.001H13.706V17H12.736C12.1432 17 11.5747 16.7645 11.1556 16.3453C10.7364 15.9262 10.501 15.3577 10.501 14.765C10.501 14.1722 10.7364 13.6037 11.1556 13.1846C11.5747 12.7654 12.1432 12.53 12.736 12.53H13.706V11.174C13.706 10.5971 13.9351 10.0439 14.343 9.63601C14.7509 9.22811 15.3041 8.99896 15.881 8.99896C16.4578 8.99896 17.011 9.22811 17.4189 9.63601C17.8268 10.0439 18.056 10.5971 18.056 11.174V12.53H21.947V11.174C21.947 10.5971 22.1761 10.0439 22.584 9.63601C22.9919 9.22811 23.5451 8.99896 24.122 8.99896C24.6988 8.99896 25.252 9.22811 25.6599 9.63601C26.0678 10.0439 26.297 10.5971 26.297 11.174V12.53H27.265C27.5585 12.53 27.8491 12.5878 28.1203 12.7001C28.3914 12.8124 28.6378 12.977 28.8454 13.1846C29.0529 13.3921 29.2175 13.6385 29.3298 13.9097C29.4422 14.1808 29.5 14.4715 29.5 14.765C29.5 15.0585 29.4422 15.3491 29.3298 15.6203C29.2175 15.8914 29.0529 16.1378 28.8454 16.3453C28.6378 16.5529 28.3914 16.7175 28.1203 16.8298C27.8491 16.9422 27.5585 17 27.265 17H26.3V21H27.268C27.8607 21 28.4292 21.2354 28.8484 21.6546C29.2675 22.0737 29.503 22.6422 29.503 23.235C29.503 23.8277 29.2675 24.3962 28.8484 24.8153C28.4292 25.2345 27.8607 25.47 27.268 25.47H26.3V26.825C26.3 27.4018 26.0708 27.955 25.6629 28.3629C25.255 28.7708 24.7018 29 24.125 29C23.5481 29 22.9949 28.7708 22.587 28.3629C22.1791 27.955 21.95 27.4018 21.95 26.825H21.946ZM21.946 21V17H18.056V21H21.946Z" fill="#00A4B6"/>
</g>
<defs>
<clipPath id="clip0_58_26">
<rect width="39" height="39.001" fill="white" transform="translate(0.5)"/>
</clipPath>
</defs>
</svg>
