<svg width="34" height="47" viewBox="0 0 34 47" fill="none" xmlns="http://www.w3.org/2000/svg">
<g clip-path="url(#clip0_58_35)">
<path d="M19.4914 39.0781C19.4063 39.8659 19.4364 40.662 19.5812 41.4411H19.3932C13.8632 41.4411 8.3334 41.4411 2.8034 41.4411C2.3618 41.4615 1.92391 41.3483 1.54754 41.1164C1.17117 40.8845 0.873427 40.5446 0.69305 40.141C0.552068 39.8336 0.486666 39.497 0.502132 39.1591C0.502132 38.5121 0.502132 37.865 0.502132 37.217C0.502132 27.7716 0.502132 18.3264 0.502132 8.88103C0.481503 8.48941 0.563827 8.09911 0.740414 7.74895C0.910732 7.39704 1.17538 7.09947 1.50506 6.88933C1.83475 6.6792 2.2162 6.56482 2.60711 6.55901C3.90111 6.53301 5.19641 6.55096 6.49041 6.55096C6.51141 6.55096 6.53214 6.55104 6.56414 6.55804V8.91302H2.87127V39.0761L19.4914 39.0781Z" fill="#00A4B6"/>
<path d="M27.2167 46.3399C25.9594 46.3393 24.7307 45.9657 23.686 45.2662C22.6412 44.5667 21.8276 43.5728 21.3481 42.4105C20.8686 41.2482 20.745 39.9696 20.9926 38.7369C21.2403 37.5042 21.848 36.3729 22.7392 35.4859C23.6304 34.599 24.7646 33.9963 25.9985 33.7545C27.2323 33.5127 28.5103 33.6425 29.6704 34.1275C30.8304 34.6125 31.82 35.431 32.5146 36.4791C33.2092 37.5272 33.5771 38.7577 33.5717 40.015C33.5593 41.6938 32.8852 43.2999 31.6953 44.4842C30.5053 45.6686 28.8956 46.3355 27.2167 46.3399ZM26.644 41.4559C26.583 41.4159 26.5381 41.388 26.4951 41.356C25.8424 40.8994 25.19 40.442 24.538 39.984C24.4534 39.9138 24.3545 39.8625 24.2485 39.8333C24.1424 39.8042 24.0314 39.798 23.9228 39.815C23.7736 39.8394 23.6352 39.9081 23.5258 40.0125C23.4164 40.1169 23.3413 40.2521 23.31 40.4C23.277 40.5474 23.2899 40.7013 23.3471 40.8412C23.4043 40.981 23.503 41.1 23.6298 41.182C24.5298 41.814 25.4298 42.431 26.3178 43.076C26.4123 43.1478 26.521 43.1986 26.6367 43.2252C26.7523 43.2518 26.8723 43.2536 26.9887 43.2303C27.1051 43.2071 27.2154 43.1592 27.312 43.0902C27.4085 43.0212 27.4891 42.9325 27.5488 42.8299C27.7818 42.4459 28.0357 42.0761 28.2797 41.6991C28.9791 40.6231 29.6792 39.5473 30.3798 38.472C30.4468 38.3849 30.4961 38.2851 30.5239 38.1788C30.5517 38.0725 30.5577 37.9616 30.5419 37.8529C30.5168 37.7042 30.4475 37.5665 30.3432 37.4576C30.2389 37.3487 30.1045 37.2736 29.957 37.242C29.8037 37.2144 29.6459 37.233 29.5034 37.2957C29.3608 37.3585 29.2403 37.4624 29.1572 37.5941C28.7432 38.2241 28.3348 38.857 27.9248 39.494L26.644 41.4559Z" fill="#00A4B6"/>
<path d="M7.76395 8.97905V8.80912C7.76395 7.78779 7.76395 6.76649 7.76395 5.74516C7.75374 5.4434 7.80579 5.14265 7.91679 4.86186C8.02778 4.58106 8.19519 4.32605 8.40897 4.11283C8.62276 3.89962 8.87838 3.73285 9.15946 3.6226C9.44055 3.51235 9.74103 3.46119 10.0428 3.47221H11.7869C11.7629 2.95075 11.8626 2.43089 12.0779 1.95536C12.2933 1.47984 12.6184 1.06207 13.0262 0.736126C13.6763 0.196449 14.5132 -0.0642719 15.3548 0.0110282C16.214 0.0798383 17.0133 0.478782 17.5848 1.12407C18.1562 1.76935 18.4558 2.611 18.4202 3.47221H18.5872C19.1002 3.47221 19.6137 3.47221 20.1277 3.47221C20.4201 3.46769 20.7104 3.52144 20.9817 3.63041C21.253 3.73939 21.5003 3.90125 21.7083 4.10673C21.9163 4.31222 22.0809 4.55722 22.1932 4.82719C22.3054 5.09716 22.3631 5.38662 22.3621 5.679C22.3741 6.748 22.3621 7.818 22.3621 8.887C22.3621 8.913 22.3618 8.94005 22.3558 8.97905H7.76395ZM15.0999 4.8892C15.4115 4.88841 15.7161 4.7953 15.9749 4.62162C16.2337 4.44795 16.4352 4.20148 16.554 3.91337C16.6728 3.62526 16.7035 3.30832 16.6424 3.00273C16.5812 2.69714 16.4308 2.41656 16.2102 2.19633C15.9897 1.9761 15.7093 1.82617 15.4036 1.76542C15.0979 1.70467 14.7809 1.73585 14.493 1.85502C14.205 1.97419 13.9588 2.17587 13.7854 2.43486C13.6121 2.69384 13.5192 2.99846 13.5188 3.3101C13.5202 3.7289 13.6877 4.13006 13.9842 4.42582C14.2807 4.72158 14.6821 4.88796 15.1009 4.88823L15.0999 4.8892Z" fill="#00A4B6"/>
<path d="M29.71 32.61C28.9471 32.3577 28.1506 32.2229 27.3472 32.2101V8.92521H23.5698V6.55216H23.7168C24.9788 6.55216 26.2409 6.55216 27.5039 6.55216C28.0138 6.54919 28.5091 6.7246 28.9033 7.04801C29.2976 7.37142 29.5663 7.82248 29.6631 8.32316C29.6959 8.5019 29.7109 8.68344 29.708 8.86515C29.708 16.7158 29.708 24.5665 29.708 32.4172L29.71 32.61Z" fill="#00A4B6"/>
<path d="M17.7872 17.9151H11.3233C11.1597 17.9326 10.9948 17.8934 10.8565 17.8043C10.7183 17.7151 10.6147 17.5814 10.5631 17.4251C10.5318 17.3286 10.5217 17.2263 10.5338 17.1256C10.5459 17.0248 10.5801 16.928 10.6334 16.8416C10.6867 16.7553 10.7578 16.6814 10.8424 16.6253C10.927 16.5693 11.0228 16.5325 11.1231 16.5172C11.1916 16.5066 11.2609 16.5018 11.3302 16.503H24.2432C24.3632 16.491 24.4845 16.5084 24.5963 16.5536C24.7081 16.5987 24.8073 16.6701 24.8853 16.762C24.9687 16.8608 25.0219 16.9812 25.0396 17.1092C25.0573 17.2372 25.0384 17.3676 24.9849 17.4852C24.9388 17.6063 24.8585 17.7111 24.7535 17.787C24.6485 17.8628 24.5236 17.9064 24.3941 17.9122C24.3191 17.9192 24.244 17.9122 24.169 17.9122L17.7872 17.9151Z" fill="#00A4B6"/>
<path d="M17.7754 31.4911C15.6261 31.4911 13.4759 31.4911 11.3252 31.4911C11.1916 31.5029 11.0574 31.4786 10.9365 31.4205C10.8156 31.3624 10.7125 31.2729 10.6382 31.1612C10.5714 31.0584 10.5329 30.9397 10.5264 30.8172C10.5199 30.6948 10.5456 30.5726 10.6011 30.4632C10.6566 30.3539 10.7401 30.261 10.8428 30.194C10.9455 30.1269 11.0636 30.088 11.186 30.0812C11.2397 30.0785 11.2935 30.0785 11.3472 30.0812H24.229C24.3953 30.0606 24.5639 30.0983 24.7056 30.1878C24.8472 30.2774 24.9535 30.4131 25.0064 30.5721C25.0395 30.6726 25.0491 30.7793 25.0352 30.8841C25.0212 30.989 24.9836 31.0893 24.9253 31.1776C24.867 31.2658 24.7897 31.3397 24.6987 31.3937C24.6078 31.4476 24.5058 31.4802 24.4004 31.4891C24.3254 31.4961 24.2513 31.4891 24.1763 31.4891L17.7754 31.4911Z" fill="#00A4B6"/>
<path d="M17.7937 23.292C19.9384 23.292 22.0832 23.292 24.2278 23.292C24.3668 23.2779 24.5067 23.3024 24.6326 23.3628C24.7586 23.4231 24.8656 23.5169 24.9417 23.634C24.9997 23.7288 25.0344 23.8361 25.0428 23.947C25.0511 24.0578 25.0327 24.169 24.9895 24.2715C24.9464 24.3739 24.8794 24.4645 24.7942 24.5359C24.709 24.6073 24.6082 24.6575 24.4998 24.6821C24.4057 24.7011 24.3097 24.71 24.2137 24.709H11.3577C11.178 24.7336 10.9952 24.691 10.845 24.5893C10.6948 24.4876 10.5877 24.3339 10.5437 24.1579C10.5218 24.0642 10.5195 23.967 10.5369 23.8723C10.5543 23.7776 10.591 23.6875 10.6448 23.6076C10.6986 23.5278 10.7682 23.4599 10.8494 23.4082C10.9306 23.3565 11.0214 23.322 11.1165 23.3071C11.2121 23.2958 11.3084 23.291 11.4046 23.2929L17.7937 23.292Z" fill="#00A4B6"/>
<path d="M6.50515 24.475C6.57615 24.368 6.639 24.275 6.699 24.182C7.07433 23.604 7.44964 23.0258 7.82497 22.4472C7.8614 22.3743 7.91901 22.3142 7.9905 22.2751C8.06199 22.2359 8.14383 22.2196 8.22487 22.2282C8.29371 22.2324 8.36007 22.2548 8.41726 22.2934C8.47445 22.3319 8.52029 22.385 8.55007 22.4472C8.57985 22.5094 8.59254 22.5784 8.58669 22.6471C8.58084 22.7158 8.55673 22.7818 8.51687 22.838C8.39287 23.05 8.25196 23.2522 8.11696 23.4582C7.7443 24.0322 7.37147 24.6058 6.9988 25.1791C6.97099 25.2407 6.92908 25.2947 6.87624 25.3368C6.8234 25.379 6.76133 25.4079 6.69509 25.4213C6.62885 25.4347 6.56043 25.4323 6.49538 25.414C6.43033 25.3957 6.37061 25.362 6.32107 25.3161C5.8544 24.9934 5.39 24.6689 4.928 24.3422C4.8775 24.3166 4.83314 24.2804 4.79763 24.2362C4.76212 24.1921 4.73621 24.1409 4.72194 24.0861C4.70768 24.0313 4.70511 23.9742 4.71462 23.9184C4.72413 23.8625 4.74552 23.8094 4.77712 23.7624C4.80872 23.7154 4.8501 23.6755 4.89821 23.6457C4.94633 23.6158 5.00028 23.5965 5.05642 23.589C5.11256 23.5815 5.16964 23.586 5.2239 23.6022C5.27816 23.6184 5.32806 23.6459 5.37087 23.683C5.74287 23.939 6.11115 24.202 6.50515 24.475Z" fill="#00A4B6"/>
<path d="M6.50498 17.9332L7.47813 16.439C7.59513 16.26 7.70773 16.0792 7.82773 15.9012C7.85471 15.8517 7.89204 15.8083 7.93662 15.7738C7.9812 15.7392 8.03233 15.7142 8.08701 15.7005C8.1417 15.6868 8.19841 15.6845 8.254 15.6939C8.3096 15.7033 8.36262 15.7243 8.40977 15.7552C8.45447 15.7854 8.49257 15.8242 8.52158 15.8697C8.55059 15.9152 8.57018 15.9661 8.57871 16.0194C8.58724 16.0726 8.58474 16.127 8.57139 16.1793C8.55803 16.2315 8.53411 16.2805 8.50107 16.3231C7.99174 17.1144 7.4793 17.9033 6.96396 18.69C6.93554 18.7408 6.89638 18.7848 6.84922 18.8189C6.80206 18.853 6.74814 18.8762 6.69102 18.8873C6.63389 18.8983 6.57463 18.8969 6.51816 18.8829C6.4617 18.8688 6.40917 18.8427 6.36387 18.8062C5.86987 18.4672 5.38165 18.121 4.89365 17.773C4.85109 17.7447 4.81489 17.7083 4.78672 17.6656C4.75855 17.6229 4.7394 17.575 4.73008 17.5247C4.72075 17.4745 4.72153 17.4228 4.73252 17.3729C4.74351 17.3229 4.76447 17.2759 4.79404 17.2342C4.85454 17.1485 4.94615 17.0898 5.04941 17.0711C5.15267 17.0524 5.25907 17.075 5.3458 17.1341C5.6838 17.3591 6.0138 17.5962 6.3458 17.8292L6.50498 17.9332Z" fill="#00A4B6"/>
<path d="M6.5096 31.0202L7.31477 29.7831C7.48577 29.5191 7.65642 29.2542 7.82942 28.9902C7.85319 28.938 7.8882 28.8915 7.93147 28.8539C7.97474 28.8164 8.02544 28.7886 8.0804 28.7724C8.13536 28.7562 8.1931 28.7521 8.24983 28.7602C8.30657 28.7683 8.36075 28.7884 8.40901 28.8193C8.45728 28.8502 8.49854 28.891 8.52962 28.9391C8.5607 28.9873 8.5809 29.0416 8.58919 29.0983C8.59747 29.155 8.59348 29.2127 8.57747 29.2678C8.56146 29.3228 8.53382 29.3738 8.49641 29.4172C7.99175 30.1972 7.48537 30.9761 6.97737 31.7541C6.94948 31.8082 6.91023 31.8554 6.86165 31.892C6.81306 31.9286 6.75676 31.9538 6.6971 31.9658C6.63744 31.9777 6.57585 31.976 6.51692 31.9609C6.458 31.9457 6.40328 31.9173 6.35677 31.8781C5.86877 31.5448 5.38276 31.2053 4.89876 30.8593C4.85458 30.8309 4.81663 30.7936 4.78743 30.7499C4.75823 30.7063 4.73822 30.6571 4.72884 30.6054C4.71946 30.5537 4.72075 30.5008 4.73274 30.4496C4.74474 30.3985 4.76728 30.3504 4.79866 30.3083C4.82745 30.2646 4.86485 30.227 4.90852 30.1982C4.9522 30.1693 5.00106 30.1497 5.05257 30.1403C5.10408 30.131 5.1573 30.1321 5.20833 30.1437C5.25936 30.1554 5.30712 30.1774 5.34944 30.2082C5.67344 30.4262 5.98845 30.6551 6.30745 30.8791L6.5096 31.0202Z" fill="#00A4B6"/>
</g>
<defs>
<clipPath id="clip0_58_35">
<rect width="33.071" height="46.34" fill="white" transform="translate(0.5)"/>
</clipPath>
</defs>
</svg>
