<svg width="36" height="41" viewBox="0 0 36 41" fill="none" xmlns="http://www.w3.org/2000/svg">
<g clip-path="url(#clip0_58_52)">
<path d="M19.7192 18.071C21.7559 18.6481 23.6574 19.624 25.3139 20.942C25.3643 20.9887 25.4113 21.0392 25.454 21.093C21.324 21.774 18.3492 23.911 17.0112 27.913C15.6732 31.915 16.7412 35.42 19.6542 38.46C19.5542 38.471 19.4859 38.486 19.4169 38.486C14.0803 38.486 8.74291 38.486 3.40424 38.486C2.82324 38.492 2.25043 38.3471 1.74213 38.0656C1.23384 37.7841 0.807052 37.3756 0.503852 36.88C0.183849 36.4136 0.00980231 35.8625 0.00385225 35.297C-0.00214775 34.228 -0.00719854 33.158 0.0268015 32.089C0.051898 31.5211 0.114691 30.9555 0.21479 30.396C0.436285 29.1112 0.827781 27.8615 1.37885 26.68C2.86657 23.4344 5.4161 20.7928 8.60688 19.191C9.49006 18.7406 10.4157 18.3785 11.3701 18.11C11.3821 18.11 11.3902 18.09 11.4052 18.073C9.77213 17.2789 8.4025 16.031 7.4604 14.4786C6.51829 12.9262 6.04362 11.1352 6.09321 9.31996C6.09248 8.00592 6.37706 6.70744 6.92768 5.51433C7.47831 4.32122 8.2818 3.26198 9.28217 2.40996C10.2479 1.54811 11.38 0.893546 12.6088 0.486771C13.8377 0.0799956 15.137 -0.0703224 16.4262 0.0450593C17.7155 0.160441 18.9674 0.539096 20.1044 1.15761C21.2415 1.77612 22.2397 2.62133 23.0371 3.64098C23.9364 4.74075 24.5668 6.03522 24.8779 7.42143C25.189 8.80765 25.1722 10.2473 24.829 11.626C24.5161 13.0151 23.8939 14.3158 23.0092 15.4316C22.1246 16.5474 21.0003 17.4495 19.7192 18.071Z" fill="#00A4B6"/>
<path d="M26.4572 40.108C24.6715 40.1088 22.9255 39.5798 21.4406 38.588C19.9556 37.5963 18.7982 36.1862 18.1149 34.5365C17.4316 32.8867 17.2534 31.0713 17.6022 29.32C17.951 27.5687 18.8115 25.9602 20.0748 24.6981C21.3382 23.4361 22.9472 22.5772 24.6989 22.2301C26.4505 21.883 28.2661 22.0633 29.9152 22.7483C31.5643 23.4333 32.9727 24.5921 33.963 26.078C34.9533 27.564 35.4807 29.3103 35.4782 31.096C35.4726 33.4859 34.5201 35.7763 32.8292 37.4655C31.1384 39.1546 28.8472 40.1048 26.4572 40.108ZM21.4943 30.855C21.5017 31.0997 21.6012 31.3326 21.7731 31.507C22.5501 32.407 23.3213 33.312 24.0973 34.214C24.1835 34.3232 24.2914 34.4134 24.4142 34.4788C24.537 34.5443 24.6719 34.5836 24.8107 34.5943C24.9494 34.605 25.089 34.5869 25.2204 34.541C25.3517 34.4952 25.4724 34.4226 25.5744 34.328C25.9564 33.995 26.3253 33.648 26.7013 33.306C28.164 31.9727 29.6257 30.641 31.087 29.311C31.1873 29.2198 31.2683 29.1094 31.3248 28.9863C31.3814 28.8632 31.4123 28.7298 31.4162 28.5944C31.42 28.4589 31.3968 28.3242 31.3473 28.198C31.2978 28.0719 31.2235 27.957 31.1286 27.8603C31.0336 27.7636 30.9198 27.6871 30.7946 27.6353C30.6694 27.5835 30.535 27.5575 30.3995 27.5589C30.2641 27.5603 30.1301 27.589 30.006 27.6433C29.8819 27.6976 29.7703 27.7764 29.6774 27.875C28.1767 29.2423 26.6767 30.6113 25.1774 31.9819C25.0234 32.1239 24.9341 32.124 24.7951 31.958C24.2701 31.331 23.736 30.71 23.195 30.101C23.0549 29.9478 22.8685 29.8452 22.6642 29.809C22.4599 29.7729 22.2492 29.8052 22.0651 29.901C21.8827 29.982 21.7298 30.1175 21.6276 30.2888C21.5253 30.4602 21.479 30.659 21.4943 30.858V30.855Z" fill="#00A4B6"/>
</g>
<defs>
<clipPath id="clip0_58_52">
<rect width="35.477" height="40.111" fill="white"/>
</clipPath>
</defs>
</svg>
