<svg width="56" height="21" viewBox="0 0 56 21" fill="none" xmlns="http://www.w3.org/2000/svg">
<g clip-path="url(#clip0_58_2)">
<path d="M24.7819 12.001C24.7009 12.001 24.6469 11.947 24.6469 11.866V5.83598C24.6469 5.75498 24.7009 5.70098 24.7819 5.70098H25.7989C25.8799 5.70098 25.9339 5.75498 25.9339 5.83598V10.858H27.8599C27.9409 10.858 27.9949 10.912 27.9949 10.993V11.866C27.9949 11.947 27.9409 12.001 27.8599 12.001H24.7819ZM29.5201 6.80798C29.1241 6.80798 28.8271 6.50198 28.8271 6.11498C28.8271 5.73698 29.1241 5.43098 29.5201 5.43098C29.9161 5.43098 30.2041 5.73698 30.2041 6.11498C30.2041 6.50198 29.9161 6.80798 29.5201 6.80798ZM28.8901 11.866V7.72598C28.8901 7.64498 28.9441 7.59098 29.0251 7.59098H30.0061C30.0871 7.59098 30.1411 7.64498 30.1411 7.72598V11.866C30.1411 11.947 30.0871 12.001 30.0061 12.001H29.0251C28.9441 12.001 28.8901 11.947 28.8901 11.866ZM31.354 12.001C31.273 12.001 31.219 11.947 31.219 11.866V7.72598C31.219 7.64498 31.273 7.59098 31.354 7.59098H32.29C32.371 7.59098 32.425 7.62698 32.425 7.73498L32.461 8.25698C32.713 7.80698 33.136 7.48298 33.793 7.48298C34.711 7.48298 35.386 8.14898 35.386 9.30098V11.866C35.386 11.947 35.323 12.001 35.242 12.001H34.279C34.198 12.001 34.144 11.947 34.144 11.866V9.57998C34.144 8.95898 33.856 8.62598 33.325 8.62598C32.803 8.62598 32.461 8.95898 32.461 9.57998V11.866C32.461 11.947 32.407 12.001 32.326 12.001H31.354ZM36.5835 12.001C36.5025 12.001 36.4485 11.947 36.4485 11.866V5.70098C36.4485 5.61998 36.5025 5.56598 36.5835 5.56598H37.5645C37.6455 5.56598 37.6995 5.61998 37.6995 5.70098V9.37298L39.1485 7.66298C39.1935 7.60898 39.2475 7.59098 39.3105 7.59098H40.4175C40.5345 7.59098 40.5615 7.66298 40.4895 7.75298L38.9955 9.45398L40.7235 11.839C40.7865 11.929 40.7505 12.001 40.6425 12.001H39.5985C39.5265 12.001 39.4815 11.983 39.4365 11.92L38.2485 10.309L37.6995 10.93V11.866C37.6995 11.947 37.6455 12.001 37.5645 12.001H36.5835Z" fill="white"/>
<path d="M47.5 1H8.5C4.63401 1 1.5 4.13401 1.5 8V13C1.5 16.866 4.63401 20 8.5 20H47.5C51.366 20 54.5 16.866 54.5 13V8C54.5 4.13401 51.366 1 47.5 1Z" stroke="white" stroke-width="2"/>
<path d="M16.1652 15.0253C16.0102 15.2937 15.8625 15.5676 15.6997 15.8315C15.5011 16.1408 15.2548 16.4168 14.9701 16.6493C14.4886 17.0516 13.9151 17.3287 13.3007 17.4561C12.6863 17.5834 12.05 17.557 11.4483 17.3792C11.2185 17.3113 10.9959 17.2214 10.7834 17.1108C10.3128 16.8713 9.89891 16.5339 9.56953 16.1213C9.17357 15.6327 8.90577 15.053 8.7904 14.4348C8.67819 13.8608 8.70361 13.2685 8.86458 12.7063C8.92338 12.497 9.00204 12.2938 9.09948 12.0994C9.26989 11.7683 9.45639 11.4452 9.64239 11.1231C9.78089 10.8832 9.91939 10.6433 10.0579 10.4034C10.0804 10.3644 10.0974 10.3569 10.139 10.3809C10.4063 10.5353 10.6736 10.6896 10.9409 10.8439C10.9834 10.8684 10.9827 10.8877 10.9607 10.9258C10.6702 11.4289 10.3802 11.9312 10.0897 12.4344C9.8905 12.7935 9.78022 13.195 9.76802 13.6055C9.7429 14.1159 9.8618 14.6231 10.1112 15.0691C10.3028 15.4192 10.57 15.7223 10.8935 15.9561C11.1848 16.1747 11.5173 16.3322 11.8711 16.4189C12.2248 16.5057 12.5924 16.52 12.9518 16.4609C13.6284 16.3658 14.2431 16.0162 14.6709 15.4835C14.7731 15.3573 14.8655 15.2234 14.9471 15.083C15.2141 14.6205 15.4806 14.1589 15.7471 13.6973C15.7796 13.641 15.7796 13.641 15.8368 13.674C16.1018 13.827 16.3659 13.9795 16.6301 14.132C16.6725 14.1565 16.6754 14.1755 16.6519 14.2162C16.4939 14.4899 16.3364 14.7627 16.1784 15.0364L16.1652 15.0253Z" fill="white" stroke="white" stroke-width="0.5"/>
<path d="M18.5187 10.9628L17.6215 10.4448C17.633 10.4249 17.644 10.4058 17.6545 10.3876C17.836 10.0733 18.017 9.75976 18.1985 9.44539C18.5491 8.85217 18.6631 8.14846 18.5174 7.47489C18.3995 6.88966 18.089 6.36077 17.6354 5.97261C17.3552 5.71838 17.0245 5.52624 16.6649 5.40876C16.3053 5.29128 15.9249 5.25112 15.5487 5.29092C15.1052 5.33296 14.6785 5.48176 14.305 5.72461C13.9315 5.96746 13.6224 6.29714 13.4041 6.68545C13.2236 6.99809 13.0431 7.31073 12.8626 7.62336C12.8291 7.68138 12.8291 7.68138 12.7719 7.64838C12.5069 7.49538 12.2428 7.34288 11.9778 7.18988C11.9427 7.17075 11.9329 7.15359 11.9569 7.11202C12.1699 6.74309 12.3869 6.36724 12.6066 5.99871C12.8186 5.65197 13.0905 5.34563 13.4096 5.09397C13.8321 4.74573 14.3255 4.49391 14.8554 4.35609C15.3853 4.21828 15.9389 4.19779 16.4776 4.29607C16.7802 4.34664 17.0748 4.43678 17.3539 4.56417C18.1609 4.92073 18.8186 5.54694 19.2143 6.33541C19.61 7.12388 19.7191 8.02548 19.5228 8.88556C19.4538 9.20897 19.3378 9.52051 19.1783 9.8102C18.9685 10.1856 18.754 10.5571 18.5408 10.9305C18.5353 10.94 18.5289 10.9491 18.5187 10.9628Z" fill="white" stroke="white" stroke-width="0.5"/>
<path d="M13.9012 10.5785L15.8317 7.2348C15.8687 7.17072 15.8687 7.17072 15.9319 7.20722L16.7113 7.65722C16.7693 7.69072 16.7693 7.69072 16.7368 7.74701L12.8693 14.4457C12.8363 14.5029 12.8358 14.5037 12.7787 14.4707L11.9914 14.0162C11.9342 13.9855 11.9342 13.9855 11.9687 13.9257L13.9012 10.5785Z" fill="white" stroke="white" stroke-width="0.5"/>
</g>
<defs>
<clipPath id="clip0_58_2">
<rect width="55" height="21" fill="white" transform="translate(0.5)"/>
</clipPath>
</defs>
</svg>
